# xmcd
#
# Track frame offsets: 
#        151
#        13860
#        31019
#        47126
#        62349
#        76079
#        92116
#        108124
#        122763
#        136205
#        147885
#        166406
#        185292
#        198002
#        211315
#        224345
#
# Disc length: 3203 seconds
#
# Revision: 7
# Processed by: cddbd v1.5.2PL0 Copyright (c) Steve Scherf et al.
# Submitted via: ExactAudioCopyFreeDBPlugin 1.0
#
DISCID=cf0c8110
DTITLE=蔡琴 - 蔡琴HDCD16
DYEAR=1998
DGENRE=Vocal
TTITLE0=蓝色的梦
TTITLE1=怀念
TTITLE2=梦中人
TTITLE3=不了情
TTITLE4=恋痕
TTITLE5=未识绮罗香
TTITLE6=痴情泪
TTITLE7=秦淮河畔
TTITLE8=情人的眼淚
TTITLE9=初恋
TTITLE10=明日之歌
TTITLE11=小窗相思
TTITLE12=神秘女郎
TTITLE13=愿嫁汉家郎
TTITLE14=情人山
TTITLE15=重相逢
EXTD=Õä²Ø²ÌÇÙ
EXTT0=²ÌÇÙ
EXTT1=
EXTT2=
EXTT3=
EXTT4=
EXTT5=
EXTT6=
EXTT7=
EXTT8=
EXTT9=
EXTT10=
EXTT11=
EXTT12=
EXTT13=
EXTT14=
EXTT15=
PLAYORDER=
